<svg xmlns="http://www.w3.org/2000/svg" viewBox="0 0 1200 720" role="img" aria-labelledby="title desc">
  <title id="title">Sign Detection Language project preview</title>
  <desc id="desc">Diagram showing sign input, processing, and text output for sign detection language.</desc>
  <rect width="1200" height="720" fill="#f7f9fc" />
  <text x="600" y="72" text-anchor="middle" fill="#081b38" font-family="Inter, Arial, sans-serif" font-size="50" font-weight="900">SIGN DETECTION LANGUAGE</text>
  <text x="600" y="122" text-anchor="middle" fill="#405977" font-family="Inter, Arial, sans-serif" font-size="31" font-weight="600">Converts Sign Language Gestures into Text</text>

  <g font-family="Inter, Arial, sans-serif">
    <rect x="62" y="206" width="330" height="320" rx="18" fill="#ffffff" stroke="#b9c4d0" stroke-width="2.5" />
    <rect x="126" y="160" width="204" height="47" rx="8" fill="#0b3a78" />
    <text x="228" y="191" text-anchor="middle" fill="#ffffff" font-size="22" font-weight="800">INPUT (SIGN)</text>

    <path d="M169 441 C160 379 158 318 174 317 C188 317 190 365 194 390 C194 324 195 247 212 246 C231 246 229 333 230 383 C239 342 246 307 263 313 C278 320 264 374 260 395 C276 362 290 336 304 343 C318 351 290 397 278 418 C300 405 325 391 334 405 C348 427 294 457 256 475 C224 490 186 479 169 441 Z" fill="#f0ad82" stroke="#d48a62" stroke-width="2" />
    <line x1="214" y1="264" x2="214" y2="389" stroke="#d48a62" stroke-width="2" />
    <line x1="231" y1="334" x2="230" y2="400" stroke="#d48a62" stroke-width="2" />
    <line x1="257" y1="338" x2="247" y2="404" stroke="#d48a62" stroke-width="2" />
    <line x1="283" y1="363" x2="267" y2="418" stroke="#d48a62" stroke-width="2" />

    <path d="M413 366 H481" stroke="#0b3a78" stroke-width="12" />
    <path d="M481 366 L454 340 V392 Z" fill="#0b3a78" />
    <path d="M719 366 H787" stroke="#0b3a78" stroke-width="12" />
    <path d="M787 366 L760 340 V392 Z" fill="#0b3a78" />

    <rect x="495" y="256" width="235" height="230" rx="20" fill="#ffffff" stroke="#b9c4d0" stroke-width="2.5" />
    <rect x="517" y="176" width="190" height="47" rx="8" fill="#0b3a78" />
    <text x="612" y="207" text-anchor="middle" fill="#ffffff" font-size="22" font-weight="800">PROCESSING</text>
    <path d="M576 358 C540 350 546 305 579 309 C582 275 628 276 634 310 C665 307 676 343 651 362 C670 391 635 426 607 405 C581 431 538 402 558 368" fill="none" stroke="#0b3a78" stroke-width="6" stroke-linecap="round" />
    <path d="M666 303 H696 M666 339 H704 M666 375 H704 M657 410 H688" stroke="#0b3a78" stroke-width="5" stroke-linecap="round" />
    <circle cx="708" cy="303" r="8" fill="#ffffff" stroke="#0b3a78" stroke-width="5" />
    <circle cx="716" cy="339" r="8" fill="#ffffff" stroke="#0b3a78" stroke-width="5" />
    <circle cx="716" cy="375" r="8" fill="#ffffff" stroke="#0b3a78" stroke-width="5" />
    <circle cx="700" cy="410" r="8" fill="#ffffff" stroke="#0b3a78" stroke-width="5" />
    <text x="612" y="434" text-anchor="middle" fill="#081b38" font-size="21" font-weight="700">Sign Detection</text>
    <text x="612" y="462" text-anchor="middle" fill="#081b38" font-size="21" font-weight="700">&amp; Recognition</text>

    <rect x="825" y="206" width="330" height="320" rx="18" fill="#ffffff" stroke="#b9c4d0" stroke-width="2.5" />
    <rect x="886" y="160" width="215" height="47" rx="8" fill="#0b3a78" />
    <text x="994" y="191" text-anchor="middle" fill="#ffffff" font-size="22" font-weight="800">OUTPUT (TEXT)</text>
    <text x="990" y="372" text-anchor="middle" fill="#0a0a0a" font-size="42" font-weight="900">I LOVE YOU</text>

    <rect x="250" y="578" width="700" height="74" rx="16" fill="#ffffff" stroke="#d8dee8" stroke-width="2" />
    <text x="600" y="620" text-anchor="middle" fill="#081b38" font-size="23" font-weight="700">Helps deaf and mute people communicate</text>
    <text x="600" y="650" text-anchor="middle" fill="#081b38" font-size="23" font-weight="700">by converting sign language gestures into text.</text>
  </g>
</svg>
